<?xml version="1.0" encoding="UTF-8" standalone="no"?>
<!-- Created with Inkscape (http://www.inkscape.org/) -->

<svg
   xmlns:dc="http://purl.org/dc/elements/1.1/"
   xmlns:cc="http://creativecommons.org/ns#"
   xmlns:rdf="http://www.w3.org/1999/02/22-rdf-syntax-ns#"
   xmlns:svg="http://www.w3.org/2000/svg"
   xmlns="http://www.w3.org/2000/svg"
   xmlns:sodipodi="http://sodipodi.sourceforge.net/DTD/sodipodi-0.dtd"
   xmlns:inkscape="http://www.inkscape.org/namespaces/inkscape"
   width="562.61536mm"
   height="93.491623mm"
   viewBox="0 0 562.61536 93.491623"
   version="1.1"
   id="svg8"
   inkscape:version="0.92.4 (5da689c313, 2019-01-14)"
   sodipodi:docname="logo-dark.svg">
  <defs
     id="defs2" />
  <sodipodi:namedview
     id="base"
     pagecolor="#ffffff"
     bordercolor="#666666"
     borderopacity="1.0"
     inkscape:pageopacity="0.0"
     inkscape:pageshadow="2"
     inkscape:zoom="0.24748737"
     inkscape:cx="1617.7291"
     inkscape:cy="-316.14607"
     inkscape:document-units="mm"
     inkscape:current-layer="flowRoot21"
     showgrid="false"
     fit-margin-top="0"
     fit-margin-left="0"
     fit-margin-right="0"
     fit-margin-bottom="0"
     inkscape:window-width="1304"
     inkscape:window-height="745"
     inkscape:window-x="54"
     inkscape:window-y="-8"
     inkscape:window-maximized="1" />
  <metadata
     id="metadata5">
    <rdf:RDF>
      <cc:Work
         rdf:about="">
        <dc:format>image/svg+xml</dc:format>
        <dc:type
           rdf:resource="http://purl.org/dc/dcmitype/StillImage" />
        <dc:title />
      </cc:Work>
    </rdf:RDF>
  </metadata>
  <g
     inkscape:label="Layer 1"
     inkscape:groupmode="layer"
     id="layer1"
     transform="translate(216.95834,-115.57143)">
    <g
       aria-label="Axiom Interpretation"
       transform="matrix(0.4674581,0,0,0.4674581,-163.53455,-59.233722)"
       style="font-style:normal;font-weight:normal;font-size:40px;line-height:1.25;font-family:sans-serif;letter-spacing:0px;word-spacing:0px;fill:#000000;fill-opacity:1;stroke:none"
       id="flowRoot21">
      <path
         d="m 153.67893,478.53822 -10.42666,-28.78666 -10.42667,28.78666 z m 0.56667,1.36 h -21.98667 l -3.51333,9.97334 q -1.36,3.74 -1.36,6.46 0,4.19333 3.17333,6.00666 3.17334,1.81334 8.95334,1.81334 v 1.24666 h -28.67334 v -1.24666 q 7.82,0 12.12667,-5.89334 2.38,-3.28666 6.12,-13.6 l 19.15333,-53.26666 h 2.38 l 24.36667,66.41333 q 1.7,4.64667 3.4,5.55333 1.7,0.79334 10.2,0.79334 v 1.24666 h -41.70667 v -1.24666 q 8.5,0 11.67334,-0.56667 3.17333,-0.68 3.17333,-2.60667 l -0.22667,-1.13333 z"
         style="font-style:normal;font-variant:normal;font-weight:normal;font-stretch:normal;font-size:113.33333588px;font-family:'Modern No. 20';-inkscape-font-specification:'Modern No. 20, ';fill:#333333"
         id="path58" />
      <path
         d="m 210.28362,483.97822 -13.26,-21.53333 q -1.58666,-2.60667 -3.28666,-3.4 -1.7,-0.79333 -7.02667,-0.79333 v -1.24667 h 29.35333 v 1.24667 q -2.49333,0 -5.32666,0.11333 -2.72,0.11333 -2.72,1.47333 0,0.79334 1.13333,2.60667 l 7.59333,12.46667 5.66667,-7.93334 q 2.04,-3.28666 2.04,-5.21333 0,-3.51333 -6.23333,-3.51333 v -1.24667 h 20.17333 v 1.24667 q -7.14,0 -11.67333,5.1 -1.13334,1.24666 -4.53334,6.12 l -4.64666,6.57333 14.84666,24.02667 q 1.81334,2.83333 2.60667,3.28666 1.58667,0.90667 6.91333,0.90667 v 1.13333 h -29.35333 v -1.13333 q 8.72667,0 8.72667,-1.81333 0,-1.02 -0.90667,-2.38 l -9.40667,-14.96 -7.25333,10.08666 q -1.92667,2.83334 -1.92667,4.64667 0,4.42 8.95334,4.42 v 1.13333 h -24.02667 v -1.13333 q 4.08,0 8.5,-2.83333 4.53333,-2.83334 8.16,-7.82 z"
         style="font-style:normal;font-variant:normal;font-weight:normal;font-stretch:normal;font-size:113.33333588px;font-family:'Modern No. 20';-inkscape-font-specification:'Modern No. 20, ';fill:#333333"
         id="path60" />
      <path
         d="m 264.63936,457.11822 v 42.72667 q 0,2.26667 0.34,2.94667 0.22667,0.34 1.02,0.68 2.38,0.79333 9.86,0.79333 v 1.13333 h -33.09333 v -1.13333 q 3.28666,0 5.89333,-0.22667 2.72,-0.22666 4.64667,-0.90666 0.68,-0.56667 0.68,-3.28667 v -35.13333 q 0,-2.15334 -0.45334,-2.72 -0.79333,-1.13334 -1.47333,-1.36 -2.04,-0.56667 -9.29333,-0.56667 v -1.13333 z m -6.00667,-25.72666 q 2.72,0 4.53334,1.81333 1.81333,1.81333 1.81333,4.53333 0,2.72 -1.81333,4.53334 -1.81334,1.81333 -4.53334,1.81333 -2.72,0 -4.53333,-1.81333 -1.81333,-1.81334 -1.81333,-4.53334 0,-2.72 1.81333,-4.53333 1.81333,-1.81333 4.53333,-1.81333 z"
         style="font-style:normal;font-variant:normal;font-weight:normal;font-stretch:normal;font-size:113.33333588px;font-family:'Modern No. 20';-inkscape-font-specification:'Modern No. 20, ';fill:#333333"
         id="path62" />
      <path
         d="m 325.87477,481.59822 q 0,10.99334 -7.59333,18.24667 -6.91334,6.57333 -15.52667,6.57333 -8.84,0 -15.41333,-6.12 -7.70667,-7.14 -7.70667,-18.7 0,-10.99333 7.59333,-18.13333 6.91334,-6.46 15.52667,-6.46 8.72667,0 15.41333,6.12 7.70667,7.02667 7.70667,18.47333 z m -11.78667,0 q 0,-12.58 -2.15333,-17.68 -2.49333,-5.89333 -9.18,-5.89333 -6.12,0 -8.72667,5.66667 -2.60666,5.66666 -2.60666,17.90666 0,12.46667 2.26666,18.13334 2.38,5.66666 9.06667,5.66666 6.12,0 8.72667,-5.78 2.60666,-5.78 2.60666,-18.02 z"
         style="font-style:normal;font-variant:normal;font-weight:normal;font-stretch:normal;font-size:113.33333588px;font-family:'Modern No. 20';-inkscape-font-specification:'Modern No. 20, ';fill:#333333"
         id="path64" />
      <path
         d="m 378.03821,470.83156 q 0.90667,-5.21334 2.60667,-8.27334 2.83333,-4.87333 7.82,-5.44 0.79333,0 1.7,-0.11333 1.02,-0.11333 1.47333,-0.11333 7.02667,0 11.22,4.30666 3.51334,3.62667 3.51334,8.61334 v 30.03333 q 0,2.15333 0.34,2.83333 0.22667,0.45334 1.02,0.79334 0.90667,0.34 3.06,0.56666 2.26667,0.22667 3.74,0.22667 v 1.13333 h -26.97334 v -1.13333 q 2.72,0 4.19334,-0.11333 1.47333,-0.22667 3.17333,-1.13334 0.68,-0.56666 0.68,-3.17333 v -28.67333 q 0,-5.32667 -0.90667,-8.27334 -1.47333,-4.64666 -5.32666,-4.64666 -3.96667,0 -6.57334,3.74 -2.94666,4.19333 -4.53333,15.18666 v 22.66667 q 0,2.26667 0.34,2.94667 0.22667,0.34 1.02,0.68 0.79333,0.22666 2.83333,0.56666 2.15334,0.22667 3.96667,0.22667 v 1.13333 h -26.97333 v -1.13333 q 4.30666,0 6.68666,-0.79333 l 0.79334,-0.34 q 0.68,-0.56667 0.68,-3.28667 v -28.67333 q 0,-5.44 -0.90667,-8.27334 -1.47333,-4.64666 -5.44,-4.64666 -5.1,0 -7.93333,6.46 -1.92667,4.53333 -3.06,12.92 v 22.21333 q 0,2.26667 0.34,2.94667 0.22666,0.34 1.02,0.68 0.90666,0.34 3.06,0.56666 2.26666,0.22667 3.74,0.22667 v 1.13333 h -28.67334 v -1.13333 q 2.38,0 4.76,-0.22667 2.49334,-0.22666 4.42,-0.90666 0.68,-0.56667 0.68,-3.28667 v -34.34 q 0,-1.02 -0.11333,-2.04 0,-1.02 -0.45333,-1.58667 -0.79334,-1.13333 -1.36,-1.36 -1.7,-0.56666 -7.82,-0.56666 v -1.13334 l 20.4,-1.92666 v 14.62 q 0.79333,-5.44 2.38,-8.61334 2.60666,-5.21333 7.70666,-5.78 1.13334,-0.11333 1.92667,-0.11333 0.90667,-0.11333 1.36,-0.11333 7.25333,0 10.99333,4.08 3.4,3.74 3.4,9.86 z"
         style="font-style:normal;font-variant:normal;font-weight:normal;font-stretch:normal;font-size:113.33333588px;font-family:'Modern No. 20';-inkscape-font-specification:'Modern No. 20, ';fill:#333333"
         id="path66" />
      <path
         d="m 473.10895,439.55156 v 58.25333 q 0,3.28667 0.45334,4.19333 0.22666,0.45334 1.36,0.90667 3.28666,1.24667 13.48666,1.24667 v 1.24666 h -44.65333 v -1.24666 q 4.87333,0 8.38667,-0.34 3.62666,-0.34 4.87333,-0.79334 1.36,-0.56666 1.7,-1.24666 0.45333,-0.79334 0.45333,-3.96667 v -58.25333 q 0,-3.17334 -0.45333,-3.96667 -0.22667,-0.45333 -1.47333,-0.90667 -3.28667,-1.24666 -13.48667,-1.24666 v -1.13334 h 44.76667 v 1.13334 q -4.87334,0 -8.5,0.34 -3.51334,0.34 -4.98667,0.90666 l -1.13333,0.45334 q -0.79334,0.68 -0.79334,4.42 z"
         style="font-style:normal;font-variant:normal;font-weight:normal;font-stretch:normal;font-size:113.33333588px;font-family:'Modern No. 20';-inkscape-font-specification:'Modern No. 20, ';fill:#333333"
         id="path68" />
      <path
         d="m 511.30935,477.63156 v 22.21333 q 0,2.26667 0.34,2.94667 0.22667,0.34 1.02,0.68 0.90667,0.34 3.06,0.56666 2.26667,0.22667 3.96667,0.22667 v 1.13333 h -29.01334 v -1.13333 q 2.49334,0 4.87334,-0.22667 2.49333,-0.22666 4.42,-0.90666 0.68,-0.56667 0.68,-3.28667 v -34.34 q 0,-1.02 -0.11334,-2.04 0,-1.02 -0.45333,-1.58667 l -0.68,-1.13333 q -1.13333,-0.79333 -8.61333,-0.79333 v -1.13334 l 20.51333,-1.92666 v 14.62 q 0.68,-4.87334 2.94667,-8.61334 3.17333,-5.21333 6.68666,-5.55333 3.51334,-0.45333 4.53334,-0.45333 7.14,0 11.33333,4.30666 3.51333,3.62667 3.51333,8.61334 v 30.03333 q 0,2.26667 0.34,2.94667 0.22667,0.34 1.13334,0.68 0.90666,0.34 3.28666,0.56666 2.38,0.22667 4.53334,0.22667 v 1.13333 h -29.01334 v -1.13333 q 1.81334,0 4.19334,-0.22667 2.38,-0.22666 4.19333,-0.90666 0.68,-0.56667 0.68,-3.28667 v -28.67333 q 0,-5.44 -0.90667,-8.27334 -1.47333,-4.64666 -5.44,-4.64666 -5.21333,0 -8.5,6.46 -2.49333,4.87333 -3.51333,12.92 z"
         style="font-style:normal;font-variant:normal;font-weight:normal;font-stretch:normal;font-size:113.33333588px;font-family:'Modern No. 20';-inkscape-font-specification:'Modern No. 20, ';fill:#333333"
         id="path70" />
      <path
         d="m 583.96842,481.25822 v 5.21334 q 0,2.60666 0.11334,4.98666 0,7.93334 -1.81334,10.88 -2.49333,4.08 -9.63333,4.08 -6.8,0 -9.97333,-3.28666 -3.17334,-3.28667 -3.17334,-9.40667 v -32.18667 h -9.06667 v -1.13333 q 9.18001,-2.26667 13.82667,-10.76667 3.74,-6.8 3.74,-15.3 h 2.04 v 23.91334 h 13.14667 v 3.28666 h -13.14667 v 30.82667 q 0,6.12 0.45334,7.93333 1.13333,4.30667 5.1,4.30667 4.64666,0 6.12,-4.98667 1.02,-3.4 1.02,-12.92 v -5.44 z"
         style="font-style:normal;font-variant:normal;font-weight:normal;font-stretch:normal;font-size:113.33333588px;font-family:'Modern No. 20';-inkscape-font-specification:'Modern No. 20, ';fill:#333333"
         id="path72" />
      <path
         d="m 598.76906,482.05156 q 0,12.12666 2.83333,17.56666 2.94667,5.44 8.84,5.44 6.23333,0 10.99333,-4.19333 5.78,-5.1 5.78,-13.82667 h 1.02 q 0,8.5 -5.44,13.94 -5.44,5.44 -14.50666,5.44 -7.59334,0 -13.82667,-5.78 -7.36667,-6.8 -7.36667,-17.79333 0,-11.9 7.25334,-19.38 6.34666,-6.46 14.28,-6.46 7.36666,0 12.24,4.30667 7.14,6.34666 7.14,20.74 z m 19.72,-1.47334 q 0,-10.88 -2.04,-16.54666 -1.92667,-5.78 -6.34667,-5.78 -6.23333,0 -8.84,5.44 -2.49333,5.44 -2.49333,16.88666 z"
         style="font-style:normal;font-variant:normal;font-weight:normal;font-stretch:normal;font-size:113.33333588px;font-family:'Modern No. 20';-inkscape-font-specification:'Modern No. 20, ';fill:#333333"
         id="path74" />
      <path
         d="m 642.90531,464.71156 q 0,-2.26667 -0.45334,-2.83334 -0.79333,-1.13333 -1.47333,-1.36 -2.04,-0.56666 -9.29333,-0.56666 v -1.13334 l 21.87333,-1.7 v 14.28 q 0.45333,-4.64666 3.17333,-8.72666 3.74,-5.66667 9.40667,-5.66667 2.15333,0 4.64667,1.47333 2.49333,1.36 3.28666,3.51334 0.90667,2.15333 0.90667,3.85333 0,4.53333 -3.74,6.23333 -0.90667,0.45334 -2.38,0.45334 -2.26667,0 -3.85333,-1.58667 -1.58667,-1.58667 -1.58667,-4.76 0,-2.04 1.47333,-4.08 1.58667,-2.04 3.62667,-1.58667 -0.68,-2.26666 -4.08,-2.26666 -3.28667,0 -6.57333,4.76 -4.30667,6.12 -4.30667,15.75333 v 21.08 q 0,2.26667 0.34,2.94667 0.22667,0.34 1.02,0.68 2.38,0.79333 9.86,0.79333 v 1.13333 h -33.09333 v -1.13333 q 3.28666,0 5.89333,-0.22667 2.72,-0.22666 4.64667,-0.90666 0.68,-0.56667 0.68,-3.28667 z"
         style="font-style:normal;font-variant:normal;font-weight:normal;font-stretch:normal;font-size:113.33333588px;font-family:'Modern No. 20';-inkscape-font-specification:'Modern No. 20, ';fill:#333333"
         id="path76" />
      <path
         d="m 695.78416,473.21156 q 0.68,-5.89334 3.17333,-10.2 3.51334,-6.00667 9.29334,-6.00667 8.16,0 13.48667,6.23333 5.78,6.8 5.78,18.7 0,8.16 -5.32667,15.64 -6.23333,8.84 -15.75333,8.84 -4.98667,0 -7.93334,-5.32666 -2.04,-3.74 -2.72,-8.61334 v 31.05334 q 0,2.26666 0.34,2.94666 0.22667,0.34 1.02,0.68 2.38,0.79334 9.86,0.79334 v 1.13333 h -33.09333 v -1.13333 q 3.28666,0 5.89333,-0.22667 2.72,-0.22667 4.64667,-0.90667 0.68,-0.56666 0.68,-3.28666 v -58.59334 q 0,-2.26666 -0.68,-3.17333 -0.68,-0.90667 -1.36,-1.13333 -2.04,-0.56667 -9.06667,-0.56667 v -1.13333 l 21.76,-1.92667 z m 0.56667,8.84 q 0,11.33333 2.60666,17.22666 2.60667,5.89334 7.14001,5.89334 5.44,0 7.48,-4.98667 2.15333,-5.1 2.15333,-18.36 0,-12.01333 -1.24667,-16.77333 -1.81333,-6.91334 -7.48,-6.91334 -3.85333,0 -6.91333,5.78 -3.74,6.91334 -3.74,18.13334 z"
         style="font-style:normal;font-variant:normal;font-weight:normal;font-stretch:normal;font-size:113.33333588px;font-family:'Modern No. 20';-inkscape-font-specification:'Modern No. 20, ';fill:#333333"
         id="path78" />
      <path
         d="m 742.51468,464.71156 q 0,-2.26667 -0.45333,-2.83334 -0.79333,-1.13333 -1.47333,-1.36 -2.04,-0.56666 -9.29334,-0.56666 v -1.13334 l 21.87334,-1.7 v 14.28 q 0.45333,-4.64666 3.17333,-8.72666 3.74,-5.66667 9.40667,-5.66667 2.15333,0 4.64666,1.47333 2.49334,1.36 3.28667,3.51334 0.90667,2.15333 0.90667,3.85333 0,4.53333 -3.74,6.23333 -0.90667,0.45334 -2.38,0.45334 -2.26667,0 -3.85334,-1.58667 -1.58666,-1.58667 -1.58666,-4.76 0,-2.04 1.47333,-4.08 1.58667,-2.04 3.62667,-1.58667 -0.68,-2.26666 -4.08,-2.26666 -3.28667,0 -6.57334,4.76 -4.30666,6.12 -4.30666,15.75333 v 21.08 q 0,2.26667 0.34,2.94667 0.22666,0.34 1.02,0.68 2.38,0.79333 9.86,0.79333 v 1.13333 h -33.09334 v -1.13333 q 3.28667,0 5.89334,-0.22667 2.72,-0.22666 4.64666,-0.90666 0.68,-0.56667 0.68,-3.28667 z"
         style="font-style:normal;font-variant:normal;font-weight:normal;font-stretch:normal;font-size:113.33333588px;font-family:'Modern No. 20';-inkscape-font-specification:'Modern No. 20, ';fill:#333333"
         id="path80" />
      <path
         d="m 788.02687,482.05156 q 0,12.12666 2.83333,17.56666 2.94667,5.44 8.84,5.44 6.23334,0 10.99334,-4.19333 5.78,-5.1 5.78,-13.82667 h 1.02 q 0,8.5 -5.44,13.94 -5.44,5.44 -14.50667,5.44 -7.59333,0 -13.82667,-5.78 -7.36666,-6.8 -7.36666,-17.79333 0,-11.9 7.25333,-19.38 6.34667,-6.46 14.28,-6.46 7.36667,0 12.24,4.30667 7.14,6.34666 7.14,20.74 z m 19.72,-1.47334 q 0,-10.88 -2.04,-16.54666 -1.92667,-5.78 -6.34667,-5.78 -6.23333,0 -8.84,5.44 -2.49333,5.44 -2.49333,16.88666 z"
         style="font-style:normal;font-variant:normal;font-weight:normal;font-stretch:normal;font-size:113.33333588px;font-family:'Modern No. 20';-inkscape-font-specification:'Modern No. 20, ';fill:#333333"
         id="path82" />
      <path
         d="m 853.35645,481.25822 v 5.21334 q 0,2.60666 0.11334,4.98666 0,7.93334 -1.81334,10.88 -2.49333,4.08 -9.63333,4.08 -6.8,0 -9.97333,-3.28666 -3.17334,-3.28667 -3.17334,-9.40667 v -32.18667 h -9.06666 v -1.13333 q 9.18,-2.26667 13.82666,-10.76667 3.74,-6.8 3.74,-15.3 h 2.04 v 23.91334 h 13.14667 v 3.28666 h -13.14667 v 30.82667 q 0,6.12 0.45334,7.93333 1.13333,4.30667 5.1,4.30667 4.64666,0 6.12,-4.98667 1.02,-3.4 1.02,-12.92 v -5.44 z"
         style="font-style:normal;font-variant:normal;font-weight:normal;font-stretch:normal;font-size:113.33333588px;font-family:'Modern No. 20';-inkscape-font-specification:'Modern No. 20, ';fill:#333333"
         id="path84" />
      <path
         d="m 885.15706,492.93156 v -15.07334 q -1.36,1.81334 -4.08,2.26667 -2.60667,0.34 -5.1,0.68 -3.28667,0.79333 -5.21334,3.62667 -2.26666,3.4 -2.26666,9.52 0,6.57333 1.24666,8.95333 1.36,2.26667 4.19334,2.26667 4.30666,0 7.70666,-3.51334 3.51334,-3.62666 3.51334,-8.72666 z m 0.34,-20.4 v -6.57334 q 0,-4.53333 -1.47334,-6.12 -1.47333,-1.58666 -6.34666,-1.58666 -3.96667,0 -6.91334,1.47333 -2.94666,1.47333 -3.85333,3.96667 0.45333,-0.11334 1.13333,-0.11334 2.15334,0 3.51334,1.7 1.36,1.7 1.36,3.85334 0,2.49333 -1.7,4.08 -1.7,1.58666 -3.96667,1.58666 -1.47333,0 -2.60667,-0.79333 -3.28666,-2.15333 -3.28666,-5.44 0,-1.58667 0.68,-3.62667 1.58666,-4.42 7.93333,-6.46 4.53333,-1.47333 9.18,-1.47333 8.38667,0 12.69333,3.17333 3.85334,2.83334 3.85334,7.14 v 25.04667 q 0,6.8 0.34,8.38667 0.79333,3.85333 4.08,3.85333 2.94667,0 3.96667,-3.06 1.02,-3.06 1.02,-8.84 0,-1.58667 -0.11334,-3.17333 0,-1.58667 0,-3.28667 v -1.02 h 1.24667 v 4.98667 q 0,2.38 0.11333,4.53333 0,6.57333 -1.58666,8.84 -2.04,2.83333 -8.27334,2.83333 -4.87333,0 -7.25333,-1.7 -2.83334,-2.04 -3.74,-6.91333 -2.38,5.55333 -7.14,7.48 -2.83334,1.13333 -7.59334,1.13333 -4.76,0 -8.27333,-2.26666 -4.87333,-3.06 -4.87333,-9.29334 0,-6.12 4.76,-10.31333 4.76,-4.08 11.56,-4.64667 6.8,-0.56666 9.18,-1.81333 2.38,-1.24667 2.38,-5.55333 z"
         style="font-style:normal;font-variant:normal;font-weight:normal;font-stretch:normal;font-size:113.33333588px;font-family:'Modern No. 20';-inkscape-font-specification:'Modern No. 20, ';fill:#333333"
         id="path86" />
      <path
         d="m 940.79133,481.25822 v 5.21334 q 0,2.60666 0.11333,4.98666 0,7.93334 -1.81333,10.88 -2.49333,4.08 -9.63333,4.08 -6.8,0 -9.97334,-3.28666 -3.17333,-3.28667 -3.17333,-9.40667 v -32.18667 h -9.06667 v -1.13333 q 9.18,-2.26667 13.82667,-10.76667 3.74,-6.8 3.74,-15.3 h 2.04 v 23.91334 H 939.998 v 3.28666 h -13.14667 v 30.82667 q 0,6.12 0.45333,7.93333 1.13334,4.30667 5.1,4.30667 4.64667,0 6.12,-4.98667 1.02,-3.4 1.02,-12.92 v -5.44 z"
         style="font-style:normal;font-variant:normal;font-weight:normal;font-stretch:normal;font-size:113.33333588px;font-family:'Modern No. 20';-inkscape-font-specification:'Modern No. 20, ';fill:#333333"
         id="path88" />
      <path
         d="m 965.22533,457.11822 v 42.72667 q 0,2.26667 0.34,2.94667 0.22666,0.34 1.02,0.68 2.38,0.79333 9.86,0.79333 v 1.13333 h -33.09334 v -1.13333 q 3.28667,0 5.89334,-0.22667 2.72,-0.22666 4.64666,-0.90666 0.68,-0.56667 0.68,-3.28667 v -35.13333 q 0,-2.15334 -0.45333,-2.72 -0.79333,-1.13334 -1.47333,-1.36 -2.04,-0.56667 -9.29334,-0.56667 v -1.13333 z m -6.00667,-25.72666 q 2.72,0 4.53333,1.81333 1.81334,1.81333 1.81334,4.53333 0,2.72 -1.81334,4.53334 -1.81333,1.81333 -4.53333,1.81333 -2.72,0 -4.53333,-1.81333 -1.81334,-1.81334 -1.81334,-4.53334 0,-2.72 1.81334,-4.53333 1.81333,-1.81333 4.53333,-1.81333 z"
         style="font-style:normal;font-variant:normal;font-weight:normal;font-stretch:normal;font-size:113.33333588px;font-family:'Modern No. 20';-inkscape-font-specification:'Modern No. 20, ';fill:#333333"
         id="path90" />
      <path
         d="m 1026.4607,481.59822 q 0,10.99334 -7.5933,18.24667 -6.9133,6.57333 -15.5267,6.57333 -8.83998,0 -15.41331,-6.12 -7.70667,-7.14 -7.70667,-18.7 0,-10.99333 7.59334,-18.13333 6.91333,-6.46 15.52664,-6.46 8.7267,0 15.4134,6.12 7.7066,7.02667 7.7066,18.47333 z m -11.7866,0 q 0,-12.58 -2.1534,-17.68 -2.4933,-5.89333 -9.18,-5.89333 -6.11998,0 -8.72664,5.66667 -2.60667,5.66666 -2.60667,17.90666 0,12.46667 2.26667,18.13334 2.38,5.66666 9.06664,5.66666 6.12,0 8.7267,-5.78 2.6067,-5.78 2.6067,-18.02 z"
         style="font-style:normal;font-variant:normal;font-weight:normal;font-stretch:normal;font-size:113.33333588px;font-family:'Modern No. 20';-inkscape-font-specification:'Modern No. 20, ';fill:#333333"
         id="path92" />
      <path
         d="m 1050.9708,477.63156 v 22.21333 q 0,2.26667 0.34,2.94667 0.2267,0.34 1.02,0.68 0.9067,0.34 3.06,0.56666 2.2667,0.22667 3.9667,0.22667 v 1.13333 h -29.0133 v -1.13333 q 2.4933,0 4.8733,-0.22667 2.4933,-0.22666 4.42,-0.90666 0.68,-0.56667 0.68,-3.28667 v -34.34 q 0,-1.02 -0.1133,-2.04 0,-1.02 -0.4534,-1.58667 l -0.68,-1.13333 q -1.1333,-0.79333 -8.6133,-0.79333 v -1.13334 l 20.5133,-1.92666 v 14.62 q 0.68,-4.87334 2.9467,-8.61334 3.1733,-5.21333 6.6867,-5.55333 3.5133,-0.45333 4.5333,-0.45333 7.14,0 11.3333,4.30666 3.5134,3.62667 3.5134,8.61334 v 30.03333 q 0,2.26667 0.34,2.94667 0.2266,0.34 1.1333,0.68 0.9067,0.34 3.2867,0.56666 2.38,0.22667 4.5333,0.22667 v 1.13333 h -29.0133 v -1.13333 q 1.8133,0 4.1933,-0.22667 2.38,-0.22666 4.1933,-0.90666 0.68,-0.56667 0.68,-3.28667 v -28.67333 q 0,-5.44 -0.9066,-8.27334 -1.4734,-4.64666 -5.44,-4.64666 -5.2134,0 -8.5,6.46 -2.4934,4.87333 -3.5134,12.92 z"
         style="font-style:normal;font-variant:normal;font-weight:normal;font-stretch:normal;font-size:113.33333588px;font-family:'Modern No. 20';-inkscape-font-specification:'Modern No. 20, ';fill:#333333"
         id="path94" />
    </g>
    <path
       style="opacity:1;fill:#992352;fill-opacity:1;stroke:none;stroke-width:4.88389063;stroke-miterlimit:4;stroke-dasharray:none;stroke-opacity:1"
       d="m -123.46671,162.31725 a 46.745811,46.745811 0 0 1 -46.74581,46.74581 46.745811,46.745811 0 0 1 -46.74582,-46.74581 46.745811,46.745811 0 0 1 46.74582,-46.74582 46.745811,46.745811 0 0 1 46.74581,46.74582 z"
       id="path29" />
    <g
       aria-label="A"
       transform="matrix(0.4674581,0,0,0.4674581,-245.00582,-113.9931)"
       style="font-style:normal;font-weight:normal;font-size:40px;line-height:1.25;font-family:sans-serif;letter-spacing:0px;word-spacing:0px;fill:#ffffff;fill-opacity:1;stroke:none"
       id="flowRoot31">
      <path
         d="m 255.39128,660.96832 h -81.26953 v -2.84505 q 11.00911,-0.98959 15.33854,-3.71094 7.66927,-4.82422 7.66927,-13.35938 0,-5.07161 -3.46354,-13.60677 l -2.10286,-5.19531 -11.875,-29.19271 h -54.42709 l -6.43229,17.07031 -3.09245,7.66927 q -5.56641,13.60678 -5.56641,21.39974 0,4.57683 1.97917,8.53516 2.10286,3.95833 5.56641,6.43229 4.82422,3.33985 12.36979,3.95834 v 2.84505 H 74.66862 v -2.84505 q 6.55599,-0.3711 11.503906,-3.21615 4.947917,-2.84505 9.648438,-9.15365 3.958334,-5.07161 7.669276,-12.98828 3.83463,-8.04036 10.01953,-23.99739 l 45.27344,-116.64714 h 7.05078 l 53.80859,130.00651 q 6.0612,14.72005 9.64844,21.02865 3.58724,6.30859 7.79297,9.52474 2.96875,2.22656 6.80339,3.46354 3.83463,1.11328 11.5039,1.97917 z m -77.68229,-72.98177 -25.97657,-64.07553 -24.49218,64.07553 z"
         style="font-style:normal;font-variant:normal;font-weight:normal;font-stretch:normal;font-size:253.33334351px;font-family:'Baskerville Old Face';-inkscape-font-specification:'Baskerville Old Face';fill:#ffffff"
         id="path98" />
    </g>
  </g>
</svg>
